<svg xmlns="http://www.w3.org/2000/svg" width="46.184" height="48" viewBox="0 0 46.184 48">
  <g id="Budgeting" transform="translate(-74.18 -60.45)">
    <g id="Group_2038" data-name="Group 2038" transform="translate(74.18 60.45)">
      <path id="Path_8424" data-name="Path 8424" d="M74.18,81.1a11.486,11.486,0,0,1,9.144-11.244V61.746a1.3,1.3,0,0,1,1.3-1.3h34.447a1.3,1.3,0,0,1,1.3,1.3v45.408a1.3,1.3,0,0,1-1.3,1.3H84.62a1.3,1.3,0,0,1-1.3-1.3V92.342A11.488,11.488,0,0,1,74.18,81.1Zm39.648-2.036a1.3,1.3,0,0,0,0-2.593H96.175a11.515,11.515,0,0,0-1.365-2.315h19.018a1.3,1.3,0,0,0,0-2.593H92.06a11.429,11.429,0,0,0-6.144-1.943V63.043H117.77v42.814H85.917V92.577A11.493,11.493,0,0,0,96.966,79.062ZM82.853,75.6a1.3,1.3,0,0,1,0,2.594H80.714a1.3,1.3,0,0,1,0-2.594Zm5.621,11a1.3,1.3,0,0,1,0-2.594h2.139a1.3,1.3,0,0,1,0,2.594Zm-.6-11.911a1.291,1.291,0,0,1,2.239,1.286L83.452,87.51a1.291,1.291,0,0,1-2.239-1.286Zm-2.212-2.477a8.889,8.889,0,1,0,8.89,8.89A8.889,8.889,0,0,0,85.663,72.208Zm8.892,25.673h-3.4V100.2h3.4Zm-4.7-2.593h4.7V91.676a1.3,1.3,0,0,1,1.3-1.3h4.7V88.244a1.3,1.3,0,0,1,1.3-1.3h4.7V84.028a1.3,1.3,0,0,1,1.3-1.3h5.992a1.3,1.3,0,0,1,1.3,1.3v17.464a1.3,1.3,0,0,1-1.3,1.3H89.859a1.3,1.3,0,0,1-1.3-1.3V96.585a1.3,1.3,0,0,1,1.3-1.3Zm10.687-2.315h-3.4V100.2h3.4Zm5.992-3.433h-3.4V100.2h3.4Zm5.992-4.216h-3.4V100.2h3.4ZM89.859,69.246a1.3,1.3,0,0,1,0-2.594h23.968a1.3,1.3,0,0,1,0,2.594Z" transform="translate(-74.18 -60.45)" fill="#fe8400" fill-rule="evenodd"/>
    </g>
  </g>
</svg>
