<svg xmlns="http://www.w3.org/2000/svg" width="76.182" height="86.425" viewBox="0 0 76.182 86.425">
  <g id="Cost" transform="translate(-6.126 -0.229)">
    <path id="Path_8468" data-name="Path 8468" d="M46.207,10.894V4.57h8.175V.229H33.691V4.57h8.176v6.324a37.911,37.911,0,1,0,4.34,0ZM44.038,82.31a33.571,33.571,0,1,1,33.57-33.572h0A33.61,33.61,0,0,1,44.038,82.31Z" fill="#febc3e"/>
    <rect id="Rectangle_1691" data-name="Rectangle 1691" width="4.341" height="12.585" transform="translate(70.339 13.431) rotate(-45)" fill="#febc3e"/>
    <path id="Path_8469" data-name="Path 8469" d="M50.733,67.754h-4.54a4.925,4.925,0,0,1-4.919-4.919V42.186a.306.306,0,0,0-.306-.306H36.161V38.356h4.807a3.834,3.834,0,0,1,3.83,3.83V62.835a1.4,1.4,0,0,0,1.4,1.394h4.54A5.941,5.941,0,0,0,56.667,58.3a3.939,3.939,0,0,0-3.936-3.935H48.759V50.835h3.972a7.468,7.468,0,0,1,7.46,7.46A9.469,9.469,0,0,1,50.733,67.754Z" transform="translate(-3.959 -5.025)" fill="#febc3e"/>
    <rect id="Rectangle_1692" data-name="Rectangle 1692" width="7.953" height="3.524" transform="translate(34.948 41.132)" fill="#febc3e"/>
  </g>
</svg>
