<svg xmlns="http://www.w3.org/2000/svg" width="30.98" height="48" viewBox="0 0 30.98 48">
  <g id="Financial_statements" data-name="Financial statements" transform="translate(-125.8 -54.514)">
    <g id="Group_2039" data-name="Group 2039" transform="translate(125.8 54.514)">
      <path id="Path_8425" data-name="Path 8425" d="M210.591,291a1.191,1.191,0,0,0,0,2.381h8.7a1.191,1.191,0,0,0,0-2.381Z" transform="translate(-199.446 -262.844)" fill="#fe8400"/>
      <path id="Path_8426" data-name="Path 8426" d="M192.793,326h-17a1.191,1.191,0,1,0,0,2.381h17a1.191,1.191,0,1,0,0-2.381Z" transform="translate(-168.79 -293.677)" fill="#fe8400"/>
      <path id="Path_8427" data-name="Path 8427" d="M192.793,360h-17a1.191,1.191,0,1,0,0,2.381h17a1.191,1.191,0,1,0,0-2.381Z" transform="translate(-168.79 -323.628)" fill="#fe8400"/>
      <path id="Path_8428" data-name="Path 8428" d="M156.006,54.6a1.2,1.2,0,0,0-1.322.31l-1.976,2.155-1.976-2.155a1.18,1.18,0,0,0-.881-.381,1.225,1.225,0,0,0-.881.381l-1.976,2.155-1.976-2.155a1.18,1.18,0,0,0-.881-.381h0a1.225,1.225,0,0,0-.881.381l-1.976,2.155L139.3,54.905a1.18,1.18,0,0,0-.881-.381,1.225,1.225,0,0,0-.881.381l-1.976,2.155-1.976-2.155a1.18,1.18,0,0,0-.881-.381,1.225,1.225,0,0,0-.881.381L129.86,57.06,127.9,54.905a1.207,1.207,0,0,0-2.1.8v45.612a1.212,1.212,0,0,0,.774,1.107,1.156,1.156,0,0,0,.441.083,1.2,1.2,0,0,0,.881-.381l1.976-2.155,1.976,2.155a1.18,1.18,0,0,0,.881.381,1.225,1.225,0,0,0,.881-.381l1.976-2.155,1.976,2.155a1.18,1.18,0,0,0,.881.381h0a1.225,1.225,0,0,0,.881-.381L141.3,99.97l1.976,2.155a1.18,1.18,0,0,0,.881.381,1.225,1.225,0,0,0,.881-.381l1.976-2.155,1.976,2.155a1.18,1.18,0,0,0,.881.381,1.225,1.225,0,0,0,.881-.381l1.965-2.155,1.965,2.155a1.207,1.207,0,0,0,2.1-.8V55.7A1.188,1.188,0,0,0,156.006,54.6ZM154.4,98.243l-.8-.845a1.18,1.18,0,0,0-.881-.381h0a1.225,1.225,0,0,0-.881.381l-1.976,2.155L147.886,97.4a1.18,1.18,0,0,0-.881-.381,1.225,1.225,0,0,0-.881.381l-1.964,2.143-1.976-2.155a1.18,1.18,0,0,0-.881-.381h0a1.225,1.225,0,0,0-.881.381l-1.976,2.155-1.976-2.179a1.2,1.2,0,0,0-.881-.4h0a1.249,1.249,0,0,0-.881.4l-1.976,2.167-1.976-2.143a1.18,1.18,0,0,0-.881-.381,1.217,1.217,0,0,0-.893.393l-.8.857V58.763l.8.845a1.18,1.18,0,0,0,.881.381h0a1.225,1.225,0,0,0,.881-.381l1.976-2.155,1.976,2.155a1.18,1.18,0,0,0,.881.381,1.225,1.225,0,0,0,.881-.381l1.988-2.143,1.976,2.155A1.18,1.18,0,0,0,141.3,60h0a1.225,1.225,0,0,0,.881-.381l1.976-2.155,1.976,2.179a1.2,1.2,0,0,0,.881.4h0a1.249,1.249,0,0,0,.881-.4l1.976-2.167,1.976,2.143a1.18,1.18,0,0,0,.881.381,1.217,1.217,0,0,0,.893-.393l.8-.857V98.243H154.4Z" transform="translate(-125.8 -54.514)" fill="#fe8400"/>
      <path id="Path_8429" data-name="Path 8429" d="M184.361,144.621h13.073a2.3,2.3,0,0,0,2.274-2.31v-9.394a1.449,1.449,0,0,0-.083-.452l-1.643-4.036A2.278,2.278,0,0,0,195.875,127h-9.954a2.278,2.278,0,0,0-2.107,1.429l-1.631,4.024a1.173,1.173,0,0,0-.083.452V142.3A2.29,2.29,0,0,0,184.361,144.621Zm.107-2.381v-8.1h3.215v2.75a1.189,1.189,0,0,0,.524.988,1.218,1.218,0,0,0,.667.2,1.156,1.156,0,0,0,.441-.083l4.048-1.607a1.19,1.19,0,0,0,.75-1.107v-1.143h3.215v8.1Zm7.263-8.1v.333l-1.667.667v-1Zm-1.464-2.381.357-2.381h.548l.369,2.381Zm6.477,0h-2.81l-.369-2.381h2.226Zm-10.751-2.381h2.226l-.357,2.381h-2.81Z" transform="translate(-175.396 -118.37)" fill="#fe8400"/>
    </g>
  </g>
</svg>
