<svg xmlns="http://www.w3.org/2000/svg" xmlns:xlink="http://www.w3.org/1999/xlink" width="162.173" height="39.001" viewBox="0 0 162.173 39.001">
  <defs>
    <linearGradient id="linear-gradient" x1="0.157" y1="0.01" x2="0.884" y2="0.836" gradientUnits="objectBoundingBox">
      <stop offset="0" stop-color="#ffab00"/>
      <stop offset="1" stop-color="#ff6d00"/>
    </linearGradient>
    <linearGradient id="linear-gradient-2" x1="-0.504" y1="0.101" x2="1.844" y2="1.008" xlink:href="#linear-gradient"/>
    <linearGradient id="linear-gradient-3" x1="-2.922" y1="0.036" x2="4.924" y2="1.079" xlink:href="#linear-gradient"/>
  </defs>
  <g id="Logo" transform="translate(-245.523 -50.54)">
    <g id="Group_2169" data-name="Group 2169" transform="translate(292.956 60.162)">
      <path id="Path_8447" data-name="Path 8447" d="M312.6,82.457c-4.039,0-7.341-2.73-7.341-6.986V62.863h4.775v12.5c0,1.8.983,2.838,2.566,2.838a2.529,2.529,0,0,0,2.62-2.838v-12.5h4.775V75.471C319.99,79.727,316.634,82.457,312.6,82.457Z" transform="translate(-305.255 -62.699)" fill="#90a4ae"/>
      <path id="Path_8448" data-name="Path 8448" d="M336.047,75.361h-2.92v6.931h-4.775V62.863h7.695a6.26,6.26,0,1,1,0,12.5Zm-.218-8.214h-2.7v3.93h2.7a1.968,1.968,0,1,0,0-3.93Z" transform="translate(-310.011 -62.699)" fill="#90a4ae"/>
      <path id="Path_8449" data-name="Path 8449" d="M354.967,82.414c-2.975,0-5.4-.546-7.368-2.566l3.056-3.056a6.33,6.33,0,0,0,4.339,1.364c1.883,0,2.783-.628,2.783-1.747a1.62,1.62,0,0,0-.382-1.146,2.162,2.162,0,0,0-1.282-.519l-2.347-.327a6.579,6.579,0,0,1-3.9-1.72,5.376,5.376,0,0,1-1.336-3.9c0-3.548,2.674-6.14,7.094-6.14,2.783,0,4.884.654,6.55,2.32l-3,3a4.8,4.8,0,0,0-3.685-1.145c-1.664,0-2.346.955-2.346,1.8a1.277,1.277,0,0,0,.381.9,2.189,2.189,0,0,0,1.337.573l2.347.327a6.532,6.532,0,0,1,3.82,1.61,5.657,5.657,0,0,1,1.447,4.257C362.472,80.257,359.06,82.414,354.967,82.414Z" transform="translate(-313.974 -62.657)" fill="#bdbdbd"/>
      <path id="Path_8450" data-name="Path 8450" d="M376.86,82.414a7.234,7.234,0,0,1-5.4-2.184c-2.046-2.047-1.965-4.776-1.965-7.695s-.081-5.65,1.965-7.7a7.233,7.233,0,0,1,5.4-2.183,7.028,7.028,0,0,1,7.368,6.331H379.37a2.4,2.4,0,0,0-2.483-2.073,2.318,2.318,0,0,0-1.883.819c-.437.572-.737,1.255-.737,4.8s.3,4.229.737,4.8a2.321,2.321,0,0,0,1.883.82,2.406,2.406,0,0,0,2.483-2.074h4.858A7.028,7.028,0,0,1,376.86,82.414Z" transform="translate(-318.481 -62.657)" fill="#bdbdbd"/>
      <path id="Path_8451" data-name="Path 8451" d="M401.223,82.292l-.9-2.893h-5.976l-.955,2.893H388.4l7.068-19.429h3.683l7.068,19.429ZM397.43,70.231l-1.747,5.185h3.384Z" transform="translate(-322.374 -62.699)" fill="#bdbdbd"/>
      <path id="Path_8452" data-name="Path 8452" d="M413.316,82.292V62.863h4.775V78.035h8.159v4.257Z" transform="translate(-327.505 -62.699)" fill="#bdbdbd"/>
      <path id="Path_8453" data-name="Path 8453" d="M433.113,82.292V62.863H446.32v4.256h-8.433v3.248h7.2v4.256h-7.2v3.411h8.433v4.257Z" transform="translate(-331.581 -62.699)" fill="#bdbdbd"/>
    </g>
    <g id="Group_2170" data-name="Group 2170" transform="translate(245.523 50.54)">
      <path id="Path_8454" data-name="Path 8454" d="M278.907,52.636a7.142,7.142,0,0,0-12.2,5.05V72.076a3.461,3.461,0,0,1-3.8,3.431,3.582,3.582,0,0,1-3.1-3.613V57.687a7.147,7.147,0,0,0-14.294,0V71.655a18.169,18.169,0,0,0,1.588,7.417V57.687a5.559,5.559,0,1,1,11.117,0v4.985h0V82.179c0,.155.029,3.82,2.617,5.938a6.682,6.682,0,0,0,4.364,1.423,11.811,11.811,0,0,0,2.289-.244v0l.023-.006.036-.006v0A17.716,17.716,0,0,0,281,72.076V57.687A7.074,7.074,0,0,0,278.907,52.636ZM259.882,82.943a11.388,11.388,0,0,0,14.767-10.87V57.684a.794.794,0,1,0-1.588,0V72.073a9.764,9.764,0,0,1-13.247,9.157V79.488a7.9,7.9,0,0,0,2.887.777,8.138,8.138,0,0,0,6.167-2.2,8.241,8.241,0,0,0,2.6-5.993V57.684a2.385,2.385,0,0,1,2.382-2.382,2.393,2.393,0,0,1,2.382,2.382V72.073a13.04,13.04,0,0,1-12.76,12.976,12.049,12.049,0,0,1-3.15-.361A7.993,7.993,0,0,1,259.882,82.943Zm19.533-10.867a16.114,16.114,0,0,1-12.3,15.676c-2.252.435-4.023.148-5.259-.857a4.4,4.4,0,0,1-.4-.375,13.9,13.9,0,0,0,1.791.119l.257,0a14.636,14.636,0,0,0,14.321-14.564V57.684a3.98,3.98,0,0,0-3.97-3.971,3.975,3.975,0,0,0-3.971,3.971V72.073a6.646,6.646,0,0,1-2.1,4.833,6.58,6.58,0,0,1-4.976,1.775,6.288,6.288,0,0,1-2.994-1.009V75.679a4.884,4.884,0,0,0,2.941,1.408,5.055,5.055,0,0,0,5.543-5.011V57.687a5.548,5.548,0,0,1,9.482-3.923,5.47,5.47,0,0,1,1.636,3.923Z" transform="translate(-245.523 -50.54)" fill="url(#linear-gradient)"/>
      <path id="Path_8455" data-name="Path 8455" d="M255.876,83.024V58.606a2.446,2.446,0,0,0-1.9-2.429,2.385,2.385,0,0,0-2.865,2.334V83a13.412,13.412,0,0,0,.246,2.033l-.021-.021a6.659,6.659,0,0,1-1.814-4.568V58.51a3.977,3.977,0,0,1,4.38-3.95,4.1,4.1,0,0,1,3.561,4.132V83a11.711,11.711,0,0,0,1.382,5.138,6.073,6.073,0,0,0,1.665,1.907h0l-.027-.006a5.67,5.67,0,0,1-3.988-3.422A12.75,12.75,0,0,1,255.876,83.024Z" transform="translate(-246.347 -51.364)" fill="url(#linear-gradient-2)"/>
      <path id="Path_8456" data-name="Path 8456" d="M253.523,83.848c0,.092.024.548.111,1.247l0,.021a5.5,5.5,0,0,0,2.753,4.072q.209.12.421.234a7.419,7.419,0,0,1-1.223-2.644.008.008,0,0,1-.008-.008,13.242,13.242,0,0,1-.469-2.946l0-24.491a.794.794,0,0,0-1.588,0Z" transform="translate(-247.17 -52.187)" fill="url(#linear-gradient-3)"/>
    </g>
  </g>
</svg>
