<svg xmlns="http://www.w3.org/2000/svg" width="86.425" height="86.425" viewBox="0 0 86.425 86.425">
  <g id="Market_share" data-name="Market share" transform="translate(-2 -2)">
    <g id="MARKET_SHARE-2" data-name="MARKET SHARE" transform="translate(2 2)">
      <path id="Path_8457" data-name="Path 8457" d="M71.14,37.409H43.052V9.321A4.321,4.321,0,0,0,38.731,5,36.731,36.731,0,1,0,75.461,41.731,4.321,4.321,0,0,0,71.14,37.409ZM38.731,69.819a28.088,28.088,0,0,1-4.321-55.83V41.731a4.321,4.321,0,0,0,4.321,4.321H66.473A28.131,28.131,0,0,1,38.731,69.819Z" transform="translate(-2 7.964)" fill="#febc3e"/>
      <path id="Path_8458" data-name="Path 8458" d="M16.821,2A4.321,4.321,0,0,0,12.5,6.321V38.731a4.321,4.321,0,0,0,4.321,4.321l32.409.346h0a4.321,4.321,0,0,0,3.025-1.426,4.667,4.667,0,0,0,1.3-3.241A36.774,36.774,0,0,0,16.821,2Zm4.321,32.452V10.988A28.088,28.088,0,0,1,44.564,34.712Z" transform="translate(32.873 -2)" fill="#febc3e"/>
    </g>
  </g>
</svg>
