<svg xmlns="http://www.w3.org/2000/svg" width="86.514" height="86.425" viewBox="0 0 86.514 86.425">
  <g id="Net_profit" data-name="Net profit" transform="translate(-1 -0.197)">
    <path id="Path_8476" data-name="Path 8476" d="M27.642,25H26.266v2.822A20.63,20.63,0,1,0,44.791,59.883l2.423,1.4.688-1.189A23.4,23.4,0,0,0,27.642,25Zm-1.376,5.575V47.6l-14.74,8.51a17.831,17.831,0,0,1,14.74-25.535Zm1.376,35.709A17.88,17.88,0,0,1,12.894,58.5l14.748-8.515L42.4,58.5A17.955,17.955,0,0,1,27.642,66.284ZM46.17,57.5,29.018,47.6V27.8A20.649,20.649,0,0,1,46.17,57.5Z" transform="translate(2.257 9.329)" fill="#febc3e"/>
    <path id="Path_8477" data-name="Path 8477" d="M53.257,28.643V23H50.5v5.5H45v6.881a6.888,6.888,0,0,0,6.881,6.881,4.133,4.133,0,0,1,4.128,4.128v4.128H51.881a4.133,4.133,0,0,1-4.128-4.128V42.266H45v4.128a6.894,6.894,0,0,0,5.5,6.742v5.643h2.752v-5.5h5.5V46.394a6.888,6.888,0,0,0-6.881-6.881,4.133,4.133,0,0,1-4.128-4.128V31.257h4.128a4.133,4.133,0,0,1,4.128,4.128v4.128h2.752V35.385A6.894,6.894,0,0,0,53.257,28.643Z" transform="translate(16.549 8.577)" fill="#febc3e"/>
    <path id="Path_8478" data-name="Path 8478" d="M68.43.2,49.346,28.824h6.7v17.7a28,28,0,0,0-4.786-7.048L39.531,26.9V22.379A32.079,32.079,0,0,0,45.008,9.831l.193-.952-.833-.5A30.355,30.355,0,0,0,28.755,4.054H23.018V5.43c0,.662.015,1.322.04,1.983a26.161,26.161,0,0,0-7.746,3.8l-.731.548.222.886a21.845,21.845,0,0,0,5.463,9.849V26.9L8.538,39.472a28.026,28.026,0,0,0,20.488,47.15h1.745A28.059,28.059,0,0,0,58.8,58.6c0-.293-.032-.581-.041-.872H58.8V26.072h-4.31L68.43,5.159,82.373,26.072h-4.31V78.365h2.752V28.824h6.7ZM28.755,6.807A27.594,27.594,0,0,1,42.1,10.251a29.183,29.183,0,0,1-4.68,10.317H28.159a49.384,49.384,0,0,1-2.37-13.761ZM36.779,23.32v2.752H23.018V23.32ZM23.246,10.233a51.971,51.971,0,0,0,2.022,10.335H22.245a19.084,19.084,0,0,1-4.519-7.676A23.955,23.955,0,0,1,23.246,10.233Zm7.525,73.636H29.026A25.273,25.273,0,0,1,10.55,41.351L22.24,28.824H37.557l11.69,12.527A25.273,25.273,0,0,1,30.771,83.869Z" fill="#febc3e"/>
    <rect id="Rectangle_1702" data-name="Rectangle 1702" width="2.752" height="2.752" transform="translate(67.054 70.108)" fill="#febc3e"/>
    <rect id="Rectangle_1703" data-name="Rectangle 1703" width="2.752" height="2.752" transform="translate(67.054 75.613)" fill="#febc3e"/>
  </g>
</svg>
