<svg xmlns="http://www.w3.org/2000/svg" width="36.718" height="34.566" viewBox="0 0 36.718 34.566">
  <g id="previous" transform="translate(0)">
    <g id="Group_2043" data-name="Group 2043" transform="translate(0)">
      <path id="Path_8434" data-name="Path 8434" d="M1.033,22.948,18.858,10.8a1.228,1.228,0,0,1,1.255-.07,1.214,1.214,0,0,1,.645,1.072V16.3c.67-.038,1.644-.119,2.762-.275V7.76c0-2.761,3.073-5.006,6.852-5.006S37.222,5,37.222,7.76V22.445a6.416,6.416,0,0,1-2,4.683c-3.648,3.626-11.418,4.287-14.466,4.406v4.572a1.213,1.213,0,0,1-1.9,1L1.035,24.956a1.216,1.216,0,0,1,0-2.008ZM30.371,5.182c-2.4,0-4.423,1.18-4.423,2.578s2.026,2.578,4.423,2.578a1.215,1.215,0,0,1,1.214,1.214v1.829a8.723,8.723,0,0,0,1.323-1.064A6.2,6.2,0,0,0,34.793,7.76C34.793,6.362,32.768,5.182,30.371,5.182ZM25.948,11.6V15.59a21.657,21.657,0,0,0,3.209-.965V12.69A8.107,8.107,0,0,1,25.948,11.6ZM18.329,33.808V30.337a1.224,1.224,0,0,1,1.239-1.206c1.053-.008,10.384-.185,13.944-3.726a3.967,3.967,0,0,0,1.281-2.96v-8.6c-.061.064-.114.131-.178.194a12.92,12.92,0,0,1-3.743,2.5l-.049.022a30.316,30.316,0,0,1-11.21,2.213h-.082a1.22,1.22,0,0,1-1.2-1.215V14.1L3.873,23.952Z" transform="translate(-0.504 -2.754)" fill="#fff"/>
    </g>
  </g>
</svg>
