<svg xmlns="http://www.w3.org/2000/svg" width="46.371" height="48" viewBox="0 0 46.371 48">
  <g id="Recruitment" transform="translate(-1.848 -1)">
    <g id="Group_2037" data-name="Group 2037" transform="translate(1.848 1)">
      <path id="Path_8421" data-name="Path 8421" d="M47.424,45.521a4.548,4.548,0,0,0-1.291-6.4l-7.6-4.6V12.034a.91.91,0,0,0-.385-.883L28.271,1.277A1.041,1.041,0,0,0,27.506,1H4.633A2.787,2.787,0,0,0,1.848,3.784V46.206A2.792,2.792,0,0,0,4.633,49H35.746a2.792,2.792,0,0,0,2.784-2.794V44.64l2.363,1.86A4.531,4.531,0,0,0,47.424,45.521ZM29.559,36.175a11.863,11.863,0,1,1-1.368-18.408l.035.023A11.886,11.886,0,0,1,29.559,36.175Zm-1.006-31.9,6.7,6.7H29.419a.867.867,0,0,1-.866-.867ZM36.61,43.13v3.076a.87.87,0,0,1-.864.874H4.633a.881.881,0,0,1-.864-.874V3.784a.865.865,0,0,1,.864-.864h22v7.188a2.79,2.79,0,0,0,2.786,2.787H36.61V33.349l-2.15-1.3A13.893,13.893,0,0,0,31.3,17.915h.129a.96.96,0,1,0,0-1.92H28.978a13.708,13.708,0,0,0-15.061,0H7.993a.96.96,0,1,0,0,1.92h3.589a13.616,13.616,0,0,0-1.46,1.768,13.762,13.762,0,0,0-1.99,4.358H8a.96.96,0,0,0-.96.96.947.947,0,0,0,.728.913,13.52,13.52,0,0,0,.7,6.171H8A.96.96,0,1,0,8,34H9.3a13.677,13.677,0,0,0,4.311,4.841,13.87,13.87,0,0,0,2.308,1.283H8a.96.96,0,1,0,0,1.92H32.389a.96.96,0,0,0,0-1.92H27a14.861,14.861,0,0,0,3.25-2Zm9.234,1.3a2.676,2.676,0,0,1-3.764.561L31.654,36.785a13.654,13.654,0,0,0,2.046-2.95l11.312,6.851A2.619,2.619,0,0,1,45.844,44.43Z" transform="translate(-1.848 -1)" fill="#fe8400"/>
      <path id="Path_8422" data-name="Path 8422" d="M21.865,18.5a9.728,9.728,0,1,0,9.728,9.728A9.739,9.739,0,0,0,21.865,18.5Zm0,9.819a2.34,2.34,0,1,1,2.345-2.345A2.347,2.347,0,0,1,21.869,28.315ZM27.4,33.727a7.8,7.8,0,0,1-11.066,0,7.614,7.614,0,0,1,11.066,0ZM28.583,32.2a9.424,9.424,0,0,0-4.615-2.544,4.265,4.265,0,1,0-4.2,0A9.424,9.424,0,0,0,15.146,32.2a7.808,7.808,0,1,1,13.437,0Z" transform="translate(-2.26 -1.7)" fill="#fe8400"/>
      <path id="Path_8423" data-name="Path 8423" d="M8.212,10.163H21.065a.96.96,0,0,0,0-1.92H8.212a.96.96,0,1,0,0,1.92Z" transform="translate(-2.065 -1.29)" fill="#fe8400"/>
    </g>
  </g>
</svg>
