<svg xmlns="http://www.w3.org/2000/svg" width="38.546" height="47.631" viewBox="0 0 38.546 47.631">
  <g id="Revenue" transform="translate(-11.6 -2.5)">
    <g id="Group_2040" data-name="Group 2040" transform="translate(11.6 2.5)">
      <path id="Path_8430" data-name="Path 8430" d="M48.44,14.546,38.151,4.257A5.8,5.8,0,0,0,33.985,2.55L17.472,2.5h0A5.827,5.827,0,0,0,11.6,8.372V44.259a5.88,5.88,0,0,0,5.872,5.872h26.8a5.88,5.88,0,0,0,5.872-5.872v-25.6A5.857,5.857,0,0,0,48.44,14.546Zm-3.513.954H37.2V7.77Zm2.058,28.809a2.7,2.7,0,0,1-2.71,2.71h-26.8a2.7,2.7,0,0,1-2.71-2.71V8.372a2.654,2.654,0,0,1,.8-1.907,2.742,2.742,0,0,1,1.907-.8h0l16.513.05h.05V16.3a2.356,2.356,0,0,0,2.359,2.359h10.59V44.309Z" transform="translate(-11.6 -2.5)" fill="#fe8400"/>
      <path id="Path_8431" data-name="Path 8431" d="M48.686,51.661l-6.173,1.506a1.089,1.089,0,0,0-.8.8,1.161,1.161,0,0,0,.351,1.1l1.556,1.355-.05.05-4.116,4.668H39.4l-6.224-2.811a1.545,1.545,0,0,0-.652-.151,1.729,1.729,0,0,0-1.154.5L26.5,64.209a1.754,1.754,0,0,0-.4,1.1,1.413,1.413,0,0,0,.5,1.054,1.754,1.754,0,0,0,1.1.4,1.413,1.413,0,0,0,1.054-.5L32.876,61.6h.05L39.1,64.409a1.535,1.535,0,0,0,1.807-.351l4.969-5.571,1.556,1.355a1.011,1.011,0,0,0,1.1.2,1.093,1.093,0,0,0,.7-.9l.8-6.324a1.145,1.145,0,0,0-.351-.954A1.167,1.167,0,0,0,48.686,51.661Z" transform="translate(-18.822 -26.967)" fill="#fe8400"/>
      <path id="Path_8432" data-name="Path 8432" d="M8.156,12.061h3.2v7.533h4.3V15.73" transform="translate(-0.329 -0.096)" fill="none" stroke="#fe8400" stroke-linejoin="round" stroke-width="2"/>
      <path id="Path_8433" data-name="Path 8433" d="M9.865,14.823h4.792" transform="translate(-1.357 0.362)" fill="none" stroke="#fe8400" stroke-width="2"/>
    </g>
  </g>
</svg>
